<svg width="18" height="16" viewBox="0 0 18 16" fill="none" xmlns="http://www.w3.org/2000/svg">
<path d="M6.43457 0C9.98807 0.000179803 12.869 2.7677 12.8691 6.18164C12.8691 7.43741 12.4773 8.60468 11.8076 9.58008L11.9443 9.43066L18.001 14.5215L16.6543 16L10.5977 10.9092L10.6562 10.8438C9.52615 11.7893 8.05074 12.3642 6.43457 12.3643L6.10352 12.3555C2.70377 12.1899 0.000191337 9.48896 0 6.18164C0.000158522 2.76761 2.88095 4.01078e-05 6.43457 0ZM6.43457 2C3.90924 2.00004 2.00016 3.94694 2 6.18164C2.0002 8.41631 3.90927 10.3642 6.43457 10.3643C8.95974 10.3641 10.8689 8.41623 10.8691 6.18164C10.869 3.94702 8.95976 2.00018 6.43457 2Z" fill="black"/>
</svg>
